<svg width="17" height="16" viewBox="0 0 17 16" fill="none" xmlns="http://www.w3.org/2000/svg">
<path d="M6.33192 8C6.33192 7.47247 6.48837 6.9568 6.78147 6.51819C7.07456 6.07958 7.49115 5.73775 7.97854 5.53592C8.46593 5.33409 9.00222 5.28133 9.5196 5.38432C10.037 5.48731 10.5122 5.74141 10.8851 6.1145C11.2581 6.48759 11.512 6.96289 11.6148 7.48031C11.7176 7.99772 11.6646 8.534 11.4626 9.02131C11.2606 9.50862 10.9186 9.92508 10.4799 10.218C10.0412 10.5109 9.52545 10.6672 8.99792 10.667C8.29077 10.6667 7.61266 10.3856 7.11272 9.8855C6.61277 9.38537 6.33192 8.70716 6.33192 8ZM4.88992 8C4.88992 8.81249 5.13086 9.60673 5.58225 10.2823C6.03364 10.9578 6.67522 11.4844 7.42586 11.7953C8.1765 12.1062 9.00248 12.1876 9.79936 12.0291C10.5962 11.8706 11.3282 11.4793 11.9027 10.9048C12.4772 10.3303 12.8685 9.5983 13.027 8.80143C13.1855 8.00456 13.1041 7.17858 12.7932 6.42794C12.4823 5.6773 11.9558 5.03572 11.2802 4.58432C10.6047 4.13293 9.81041 3.892 8.99792 3.892C7.90842 3.892 6.86353 4.32481 6.09313 5.09521C5.32273 5.8656 4.88992 6.91049 4.88992 8ZM12.3079 3.729C12.3079 3.91887 12.3642 4.10448 12.4697 4.26235C12.5752 4.42022 12.7251 4.54326 12.9005 4.61592C13.076 4.68858 13.269 4.7076 13.4552 4.67055C13.6414 4.63351 13.8125 4.54208 13.9467 4.40782C14.081 4.27356 14.1724 4.10251 14.2095 3.91629C14.2465 3.73006 14.2275 3.53704 14.1548 3.36162C14.0822 3.18621 13.9591 3.03628 13.8013 2.93079C13.6434 2.8253 13.4578 2.769 13.2679 2.769C13.0133 2.769 12.7691 2.87014 12.5891 3.05018C12.4091 3.23021 12.3079 3.47439 12.3079 3.729ZM5.76592 14.512C5.25848 14.5063 4.75581 14.4133 4.27992 14.237C3.93236 14.1081 3.61802 13.9031 3.35992 13.637C3.09336 13.3793 2.88828 13.0648 2.75992 12.717C2.58357 12.2411 2.49055 11.7385 2.48492 11.231C2.44592 10.388 2.43792 10.131 2.43792 7.998C2.43792 5.865 2.44592 5.609 2.48492 4.765C2.49122 4.25761 2.58422 3.75504 2.75992 3.279C2.88883 2.93143 3.09383 2.6171 3.35992 2.359C3.61759 2.09238 3.93205 1.88729 4.27992 1.759C4.75578 1.58265 5.25847 1.48962 5.76592 1.484C6.60892 1.445 6.86592 1.437 8.99792 1.437C11.1299 1.437 11.3869 1.445 12.2309 1.484C12.7383 1.49029 13.2409 1.5833 13.7169 1.759C14.0646 1.88766 14.379 2.0927 14.6369 2.359C14.9032 2.61692 15.1083 2.93131 15.2369 3.279C15.4133 3.75486 15.5063 4.25755 15.5119 4.765C15.5509 5.609 15.5589 5.865 15.5589 7.998C15.5589 10.131 15.5509 10.387 15.5119 11.231C15.5059 11.7384 15.4129 12.241 15.2369 12.717C15.1037 13.062 14.8998 13.3754 14.6381 13.6368C14.3765 13.8983 14.0631 14.102 13.7179 14.235C13.2421 14.4114 12.7394 14.5044 12.2319 14.51C11.3889 14.549 11.1319 14.557 8.99893 14.557C6.86593 14.557 6.60992 14.549 5.76692 14.51L5.76592 14.512ZM5.69792 0.048C5.03488 0.0614449 4.37891 0.187228 3.75792 0.42C3.22412 0.621021 2.74056 0.936001 2.34092 1.343C1.93355 1.74233 1.61851 2.22598 1.41792 2.76C1.18519 3.381 1.05941 4.03696 1.04592 4.7C1.00692 5.555 0.997925 5.827 0.997925 8C0.997925 10.173 1.00692 10.445 1.04592 11.3C1.05939 11.963 1.18517 12.619 1.41792 13.24C1.61857 13.774 1.9336 14.2576 2.34092 14.657C2.74074 15.0638 3.22425 15.3787 3.75792 15.58C4.37957 15.8129 5.03622 15.9387 5.69992 15.952C6.55293 15.99 6.82492 16 8.99792 16C11.1709 16 11.4429 15.991 12.2979 15.952C12.9616 15.9388 13.6183 15.813 14.2399 15.58C14.7715 15.3745 15.2542 15.0602 15.6572 14.6572C16.0601 14.2543 16.3744 13.7715 16.5799 13.24C16.8132 12.6185 16.939 11.9618 16.9519 11.298C16.9879 10.445 16.9979 10.173 16.9979 8C16.9979 5.827 16.9889 5.555 16.9499 4.7C16.9365 4.03695 16.8107 3.38099 16.5779 2.76C16.3766 2.22634 16.0617 1.74284 15.6549 1.343C15.2558 0.935898 14.7725 0.62089 14.2389 0.42C13.6177 0.186967 12.9613 0.0611776 12.2979 0.048C11.4439 0.01 11.1709 0 8.99792 0C6.82492 0 6.55292 0.009 5.69792 0.048Z" fill="url(#paint0_radial_5_168)"/>
<path d="M6.33192 8C6.33192 7.47247 6.48837 6.9568 6.78147 6.51819C7.07456 6.07958 7.49115 5.73775 7.97854 5.53592C8.46593 5.33409 9.00222 5.28133 9.5196 5.38432C10.037 5.48731 10.5122 5.74141 10.8851 6.1145C11.2581 6.48759 11.512 6.96289 11.6148 7.48031C11.7176 7.99772 11.6646 8.534 11.4626 9.02131C11.2606 9.50862 10.9186 9.92508 10.4799 10.218C10.0412 10.5109 9.52545 10.6672 8.99792 10.667C8.29077 10.6667 7.61266 10.3856 7.11272 9.8855C6.61277 9.38537 6.33192 8.70716 6.33192 8ZM4.88992 8C4.88992 8.81249 5.13086 9.60673 5.58225 10.2823C6.03364 10.9578 6.67522 11.4844 7.42586 11.7953C8.1765 12.1062 9.00248 12.1876 9.79936 12.0291C10.5962 11.8706 11.3282 11.4793 11.9027 10.9048C12.4772 10.3303 12.8685 9.5983 13.027 8.80143C13.1855 8.00456 13.1041 7.17858 12.7932 6.42794C12.4823 5.6773 11.9558 5.03572 11.2802 4.58432C10.6047 4.13293 9.81041 3.892 8.99792 3.892C7.90842 3.892 6.86353 4.32481 6.09313 5.09521C5.32273 5.8656 4.88992 6.91049 4.88992 8ZM12.3079 3.729C12.3079 3.91887 12.3642 4.10448 12.4697 4.26235C12.5752 4.42022 12.7251 4.54326 12.9005 4.61592C13.076 4.68858 13.269 4.7076 13.4552 4.67055C13.6414 4.63351 13.8125 4.54208 13.9467 4.40782C14.081 4.27356 14.1724 4.10251 14.2095 3.91629C14.2465 3.73006 14.2275 3.53704 14.1548 3.36162C14.0822 3.18621 13.9591 3.03628 13.8013 2.93079C13.6434 2.8253 13.4578 2.769 13.2679 2.769C13.0133 2.769 12.7691 2.87014 12.5891 3.05018C12.4091 3.23021 12.3079 3.47439 12.3079 3.729ZM5.76592 14.512C5.25848 14.5063 4.75581 14.4133 4.27992 14.237C3.93236 14.1081 3.61802 13.9031 3.35992 13.637C3.09336 13.3793 2.88828 13.0648 2.75992 12.717C2.58357 12.2411 2.49055 11.7385 2.48492 11.231C2.44592 10.388 2.43792 10.131 2.43792 7.998C2.43792 5.865 2.44592 5.609 2.48492 4.765C2.49122 4.25761 2.58422 3.75504 2.75992 3.279C2.88883 2.93143 3.09383 2.6171 3.35992 2.359C3.61759 2.09238 3.93205 1.88729 4.27992 1.759C4.75578 1.58265 5.25847 1.48962 5.76592 1.484C6.60892 1.445 6.86592 1.437 8.99792 1.437C11.1299 1.437 11.3869 1.445 12.2309 1.484C12.7383 1.49029 13.2409 1.5833 13.7169 1.759C14.0646 1.88766 14.379 2.0927 14.6369 2.359C14.9032 2.61692 15.1083 2.93131 15.2369 3.279C15.4133 3.75486 15.5063 4.25755 15.5119 4.765C15.5509 5.609 15.5589 5.865 15.5589 7.998C15.5589 10.131 15.5509 10.387 15.5119 11.231C15.5059 11.7384 15.4129 12.241 15.2369 12.717C15.1037 13.062 14.8998 13.3754 14.6381 13.6368C14.3765 13.8983 14.0631 14.102 13.7179 14.235C13.2421 14.4114 12.7394 14.5044 12.2319 14.51C11.3889 14.549 11.1319 14.557 8.99893 14.557C6.86593 14.557 6.60992 14.549 5.76692 14.51L5.76592 14.512ZM5.69792 0.048C5.03488 0.0614449 4.37891 0.187228 3.75792 0.42C3.22412 0.621021 2.74056 0.936001 2.34092 1.343C1.93355 1.74233 1.61851 2.22598 1.41792 2.76C1.18519 3.381 1.05941 4.03696 1.04592 4.7C1.00692 5.555 0.997925 5.827 0.997925 8C0.997925 10.173 1.00692 10.445 1.04592 11.3C1.05939 11.963 1.18517 12.619 1.41792 13.24C1.61857 13.774 1.9336 14.2576 2.34092 14.657C2.74074 15.0638 3.22425 15.3787 3.75792 15.58C4.37957 15.8129 5.03622 15.9387 5.69992 15.952C6.55293 15.99 6.82492 16 8.99792 16C11.1709 16 11.4429 15.991 12.2979 15.952C12.9616 15.9388 13.6183 15.813 14.2399 15.58C14.7715 15.3745 15.2542 15.0602 15.6572 14.6572C16.0601 14.2543 16.3744 13.7715 16.5799 13.24C16.8132 12.6185 16.939 11.9618 16.9519 11.298C16.9879 10.445 16.9979 10.173 16.9979 8C16.9979 5.827 16.9889 5.555 16.9499 4.7C16.9365 4.03695 16.8107 3.38099 16.5779 2.76C16.3766 2.22634 16.0617 1.74284 15.6549 1.343C15.2558 0.935898 14.7725 0.62089 14.2389 0.42C13.6177 0.186967 12.9613 0.0611776 12.2979 0.048C11.4439 0.01 11.1709 0 8.99792 0C6.82492 0 6.55292 0.009 5.69792 0.048Z" fill="url(#paint1_radial_5_168)"/>
<defs>
<radialGradient id="paint0_radial_5_168" cx="0" cy="0" r="1" gradientUnits="userSpaceOnUse" gradientTransform="translate(3.12593 16.08) scale(20.88)">
<stop offset="0.09" stop-color="#FA8F21"/>
<stop offset="0.78" stop-color="#D82D7E"/>
</radialGradient>
<radialGradient id="paint1_radial_5_168" cx="0" cy="0" r="1" gradientUnits="userSpaceOnUse" gradientTransform="translate(10.6939 16.8) scale(16.464)">
<stop offset="0.64" stop-color="#8C3AAA" stop-opacity="0"/>
<stop offset="1" stop-color="#8C3AAA"/>
</radialGradient>
</defs>
</svg>
